<?xml version="1.0" standalone="no"?>
<!DOCTYPE svg PUBLIC "-//W3C//DTD SVG 20010904//EN"
 "http://www.w3.org/TR/2001/REC-SVG-20010904/DTD/svg10.dtd">
<svg version="1.0" xmlns="http://www.w3.org/2000/svg"
 width="300.000000pt" height="300.000000pt" viewBox="0 0 300.000000 300.000000"
 preserveAspectRatio="xMidYMid meet">
<metadata>
Created by potrace 1.10, written by Peter Selinger 2001-2011
</metadata>
<g transform="translate(0.000000,300.000000) scale(0.100000,-0.100000)"
fill="#000000" stroke="none">
<path d="M1345 2160 c-251 -53 -455 -246 -534 -504 -27 -88 -30 -288 -5 -374
39 -139 121 -272 221 -362 76 -68 233 -145 338 -166 150 -31 347 1 485 78 89
50 219 176 269 261 18 31 47 96 64 144 29 83 31 96 30 223 -2 114 -6 147 -27
210 -40 121 -92 206 -186 301 -72 72 -100 93 -180 132 -159 77 -299 94 -475
57z m315 -36 c36 -8 103 -33 150 -56 68 -33 101 -57 171 -127 137 -138 199
-286 199 -482 0 -291 -173 -537 -450 -640 -108 -40 -264 -51 -373 -25 -205 48
-373 179 -463 361 -196 397 14 853 448 969 71 19 237 19 318 0z"/>
<path d="M1420 2123 c-14 -2 -50 -11 -80 -20 l-55 -17 54 -7 c49 -7 57 -5 94
22 39 28 38 31 -13 22z"/>
<path d="M1475 2108 c-11 -6 -31 -17 -44 -25 -22 -14 -23 -16 -6 -26 40 -22
88 -26 118 -10 17 8 49 21 71 27 l41 12 -49 17 c-57 19 -102 21 -131 5z"/>
<path d="M1716 2072 c26 -23 84 -62 90 -62 4 0 -1 9 -11 20 -10 11 -13 20 -7
20 6 0 14 -5 17 -10 8 -14 66 -43 72 -37 8 9 -86 59 -97 52 -5 -3 -20 1 -32 9
-23 17 -50 23 -32 8z"/>
<path d="M1229 2049 c-19 -16 -20 -19 -6 -15 10 3 51 9 90 13 53 5 66 9 47 14
-52 15 -107 10 -131 -12z"/>
<path d="M1600 2054 c-61 -22 -68 -31 -28 -39 18 -4 54 -16 79 -27 l46 -19 35
24 36 23 -43 27 c-48 31 -63 32 -125 11z"/>
<path d="M1162 2034 c-24 -14 -41 -28 -38 -31 6 -6 86 43 86 52 0 8 -2 7 -48
-21z"/>
<path d="M1220 2015 c-56 -14 -69 -25 -131 -112 l-30 -43 33 0 c18 0 61 -10
96 -22 l62 -22 34 33 c23 23 38 50 48 89 8 31 18 65 23 75 6 15 1 17 -36 16
-24 0 -69 -7 -99 -14z m90 -32 c0 -29 -24 -83 -45 -103 -23 -22 -27 -22 -72
-10 -26 7 -52 16 -56 20 -15 13 26 62 68 81 40 19 105 26 105 12z"/>
<path d="M1367 1993 c-36 -86 -33 -88 34 -34 35 28 68 51 73 51 30 1 -24 20
-55 20 -32 0 -38 -4 -52 -37z"/>
<path d="M1545 1993 c22 -14 58 -42 80 -60 l39 -33 12 22 c7 13 10 26 8 30 -5
7 -157 68 -171 68 -4 0 10 -12 32 -27z"/>
<path d="M1421 1953 c-57 -43 -91 -82 -91 -106 0 -1 74 -2 165 -2 119 0 166 3
169 12 5 13 -62 76 -130 123 l-40 28 -73 -55z m127 -23 c23 -17 42 -35 42 -40
0 -6 -39 -10 -95 -10 -56 0 -95 4 -95 10 0 12 78 70 95 70 7 0 31 -14 53 -30z"/>
<path d="M1739 1979 c-13 -11 -19 -22 -14 -25 6 -2 37 -22 70 -43 53 -35 85
-43 85 -21 0 14 -91 110 -105 110 -7 0 -23 -9 -36 -21z"/>
<path d="M1855 1948 c27 -29 50 -55 51 -57 2 -1 8 0 14 4 8 5 -5 24 -36 56
-65 66 -90 63 -29 -3z"/>
<path d="M1894 1962 c16 -17 32 -29 36 -27 5 3 10 -2 14 -10 3 -8 13 -15 22
-15 16 0 15 2 -1 20 -10 12 -24 19 -31 16 -7 -3 -15 1 -18 9 -3 8 -15 19 -28
26 -20 10 -20 8 6 -19z"/>
<path d="M1092 1968 c-12 -16 -42 -75 -42 -83 0 -4 16 14 35 39 19 26 35 48
35 51 0 10 -18 5 -28 -7z"/>
<path d="M1690 1914 c-11 -32 -10 -38 11 -60 27 -29 58 -31 100 -5 23 14 27
21 17 27 -7 4 -36 23 -65 41 l-52 33 -11 -36z"/>
<path d="M991 1883 c-52 -58 -60 -77 -19 -49 12 9 29 16 38 16 9 0 22 18 31
45 9 25 13 45 9 45 -5 0 -31 -26 -59 -57z"/>
<path d="M1960 1893 c0 -5 14 -24 30 -43 l29 -35 1 32 c0 22 -6 36 -19 43 -23
12 -41 13 -41 3z"/>
<path d="M1917 1883 c-2 -5 9 -30 24 -58 32 -57 33 -56 18 15 -6 30 -16 50
-24 50 -8 0 -16 -3 -18 -7z"/>
<path d="M1870 1863 c0 -5 19 -27 42 -48 l41 -40 -25 45 c-23 40 -58 66 -58
43z"/>
<path d="M1041 1818 c-6 -17 -11 -42 -11 -55 l0 -23 48 24 c26 13 68 30 92 36
l45 13 -35 12 c-19 6 -56 15 -82 18 -45 6 -47 6 -57 -25z"/>
<path d="M1810 1835 l-25 -13 28 -11 c16 -6 33 -11 38 -11 5 0 29 -9 52 -21
l42 -21 -45 46 c-48 50 -53 52 -90 31z"/>
<path d="M985 1823 c-16 -9 -40 -25 -53 -36 -23 -21 -52 -102 -52 -143 0 -21
4 -19 46 21 25 25 49 45 53 45 9 0 47 118 40 124 -2 2 -17 -3 -34 -11z"/>
<path d="M1423 1832 l-83 -3 0 -36 c0 -31 9 -44 65 -99 l65 -64 63 48 c34 27
79 59 99 71 33 20 37 26 32 49 -4 15 -7 28 -8 28 -3 5 -163 9 -233 6z m150
-30 c32 -2 47 -6 47 -15 0 -16 -129 -107 -151 -107 -21 0 -102 87 -96 103 4
12 66 23 122 21 17 -1 51 -2 78 -2z"/>
<path d="M1980 1797 c4 -25 13 -53 20 -62 8 -10 15 -23 16 -30 1 -7 13 -29 27
-49 20 -31 26 -34 36 -22 10 12 5 19 -24 42 -19 15 -33 29 -31 32 3 3 12 -1
21 -8 17 -15 19 -7 5 21 -6 10 -18 19 -28 19 -13 0 -14 2 -3 9 7 5 10 14 6 20
-5 9 -10 9 -22 0 -12 -11 -13 -9 -8 12 3 14 0 32 -8 43 -13 18 -14 15 -7 -27z"/>
<path d="M2031 1823 c-13 -23 11 -69 41 -76 12 -4 24 -5 25 -3 4 3 -47 96 -52
96 -2 0 -8 -8 -14 -17z"/>
<path d="M1680 1804 c0 -22 3 -23 20 -14 11 6 20 15 20 19 0 5 -9 11 -20 14
-16 4 -20 0 -20 -19z"/>
<path d="M1276 1811 c-6 -8 5 -20 32 -35 8 -5 12 1 12 18 0 19 -5 26 -19 26
-11 0 -22 -4 -25 -9z"/>
<path d="M1756 1798 c4 -7 19 -29 33 -48 14 -19 25 -36 26 -36 0 -1 32 6 70
15 l70 18 -95 31 c-106 36 -114 37 -104 20z"/>
<path d="M1118 1763 c-71 -29 -88 -40 -88 -57 1 -40 29 -179 38 -188 6 -6 23
20 45 65 19 41 52 101 73 133 22 33 43 65 47 72 14 21 -23 13 -115 -25z m32
-35 c0 -19 -59 -118 -70 -118 -6 0 -10 22 -10 48 0 45 3 50 33 65 40 20 47 20
47 5z"/>
<path d="M1710 1780 c-22 -17 -23 -21 -12 -58 l12 -39 40 10 c22 6 40 15 40
19 0 5 -13 26 -28 47 -28 39 -28 39 -52 21z"/>
<path d="M1203 1708 c-53 -86 -86 -148 -97 -184 -5 -15 1 -26 24 -42 l30 -23
85 41 c46 22 95 44 109 50 l24 9 -18 48 c-10 26 -21 68 -25 93 -5 37 -13 50
-41 68 -18 12 -35 22 -37 22 -1 0 -25 -37 -54 -82z m101 -12 c10 -21 21 -57
23 -80 l5 -41 -76 -37 c-84 -42 -101 -45 -110 -22 -11 29 104 229 127 222 7
-2 20 -21 31 -42z"/>
<path d="M1595 1704 c-33 -24 -72 -52 -87 -61 -27 -16 -37 -33 -20 -33 23 0
197 70 196 79 -1 6 -2 22 -2 36 -3 34 -17 31 -87 -21z"/>
<path d="M1888 1716 c-25 -6 -49 -14 -53 -17 -3 -4 4 -23 16 -43 l21 -37 37
42 c64 75 64 76 -21 55z"/>
<path d="M2070 1726 c0 -14 24 -66 30 -66 15 0 22 41 10 55 -11 13 -40 21 -40
11z"/>
<path d="M1350 1710 c0 -29 37 -131 46 -130 5 1 20 10 34 20 l25 19 -52 53
c-30 29 -53 46 -53 38z"/>
<path d="M997 1696 c-3 -8 -9 -45 -12 -84 l-7 -69 28 -6 c16 -3 30 -4 32 -2 1
1 -2 22 -7 46 -6 24 -11 63 -11 87 0 41 -12 56 -23 28z"/>
<path d="M1923 1655 l-42 -54 18 -40 c15 -35 20 -39 33 -28 14 11 46 163 36
172 -2 2 -22 -20 -45 -50z"/>
<path d="M1768 1686 c-20 -6 -39 -14 -43 -18 -7 -7 41 -102 60 -118 8 -7 22 1
44 24 l33 34 -29 44 c-28 44 -28 44 -65 34z m40 -64 c4 -26 -22 -31 -32 -6
-10 26 -7 36 12 32 9 -2 18 -13 20 -26z"/>
<path d="M927 1642 c-42 -43 -47 -52 -47 -94 l0 -45 40 19 c34 17 40 25 40 52
0 17 5 49 10 71 5 22 8 41 6 42 -1 1 -23 -19 -49 -45z"/>
<path d="M1981 1660 c-1 -19 -5 -52 -10 -72 -8 -35 -8 -37 11 -27 28 15 31 32
15 86 -15 48 -15 48 -16 13z"/>
<path d="M2016 1643 c9 -37 14 -44 25 -38 5 4 2 19 -6 36 -19 37 -27 37 -19 2z"/>
<path d="M2114 1656 c-4 -11 0 -24 10 -34 15 -15 16 -15 16 3 0 11 -4 27 -10
35 -8 12 -10 12 -16 -4z"/>
<path d="M1590 1628 c-47 -17 -87 -32 -89 -34 -2 -2 17 -36 43 -75 25 -40 51
-87 58 -106 7 -18 14 -33 18 -33 3 0 40 33 83 73 l77 72 -35 55 c-19 30 -35
60 -35 67 0 19 -24 15 -120 -19z m118 -43 c12 -19 22 -43 22 -53 0 -18 -34
-55 -79 -85 -25 -17 -25 -17 -63 49 -21 36 -38 71 -38 78 0 13 79 43 115 45
12 0 29 -12 43 -34z"/>
<path d="M2075 1620 c-3 -5 0 -20 6 -32 7 -13 21 -48 30 -78 24 -75 26 -21 2
60 -18 59 -26 70 -38 50z"/>
<path d="M1456 1602 c-3 -6 0 -12 6 -15 7 -2 -4 -9 -25 -16 -31 -10 -37 -16
-32 -32 8 -23 60 -117 95 -170 l24 -36 38 15 c21 8 38 19 38 24 0 20 -75 151
-131 231 -4 5 -9 5 -13 -1z m42 -89 c32 -46 63 -113 57 -123 -17 -28 -52 7
-99 98 -28 54 7 75 42 25z"/>
<path d="M2043 1588 c-9 -11 2 -175 12 -186 7 -8 55 31 55 44 0 18 -40 136
-50 147 -4 4 -11 2 -17 -5z"/>
<path d="M2126 1575 c8 -37 24 -57 24 -29 0 11 -7 29 -15 40 -14 18 -15 17 -9
-11z"/>
<path d="M1832 1557 l-32 -33 22 -21 c20 -20 23 -21 50 -7 33 17 33 18 10 62
l-18 32 -32 -33z"/>
<path d="M1987 1550 c-33 -18 -53 -78 -39 -118 6 -19 18 -28 41 -33 42 -9 46
2 35 94 l-9 73 -28 -16z"/>
<path d="M857 1553 c-3 -5 -1 -26 3 -48 l8 -40 1 48 c1 45 -2 56 -12 40z"/>
<path d="M1298 1467 l-78 -72 35 -50 c19 -27 34 -55 35 -62 0 -6 5 -15 11 -18
11 -8 199 55 199 66 0 4 -15 30 -34 57 -19 28 -44 74 -57 101 -12 28 -25 51
-28 51 -3 -1 -41 -33 -83 -73z m120 -48 c19 -33 31 -66 29 -74 -6 -13 -88 -45
-117 -45 -17 0 -60 67 -60 93 0 18 79 87 100 87 8 0 30 -28 48 -61z"/>
<path d="M977 1523 c-10 -16 6 -163 17 -163 6 0 21 8 33 18 28 21 41 99 21
123 -15 18 -64 33 -71 22z"/>
<path d="M1254 1487 c-80 -41 -81 -42 -63 -61 18 -19 20 -18 76 34 32 29 62
57 68 62 16 14 2 8 -81 -35z"/>
<path d="M913 1503 c-29 -20 -29 -26 3 -113 22 -58 29 -69 39 -58 16 17 8 188
-9 187 -6 0 -21 -7 -33 -16z"/>
<path d="M1720 1448 l-65 -60 87 43 c83 41 86 44 71 61 -9 10 -19 18 -22 18
-3 -1 -35 -28 -71 -62z"/>
<path d="M2151 1483 c0 -16 4 -37 9 -48 6 -15 9 -8 9 28 1 26 -3 47 -9 47 -5
0 -10 -12 -9 -27z"/>
<path d="M836 1483 c-3 -10 -1 -34 3 -53 9 -34 9 -33 10 18 1 53 -4 66 -13 35z"/>
<path d="M1883 1487 c-29 -13 -28 -18 2 -40 23 -16 26 -17 31 -2 4 9 3 24 -2
34 -7 15 -13 17 -31 8z"/>
<path d="M1085 1480 c-3 -5 -3 -20 1 -34 5 -22 8 -24 30 -14 13 6 24 14 24 18
0 14 -49 40 -55 30z"/>
<path d="M871 1440 c-1 -38 34 -146 45 -140 13 7 9 26 -20 100 -17 43 -25 57
-25 40z"/>
<path d="M1732 1412 c-87 -40 -102 -50 -98 -67 11 -50 39 -151 45 -163 3 -7
20 -22 38 -33 l31 -20 45 73 c25 40 60 104 79 141 l33 69 -30 24 c-16 13 -32
23 -35 23 -3 -1 -51 -22 -108 -47z m125 -8 c7 -18 -57 -147 -96 -195 -24 -29
-31 -32 -44 -20 -17 13 -47 104 -47 139 0 15 19 29 73 55 80 40 105 44 114 21z"/>
<path d="M2132 1430 c0 -14 4 -36 8 -50 8 -24 8 -24 8 5 0 17 -3 39 -8 50 -8
18 -9 18 -8 -5z"/>
<path d="M1128 1424 c-27 -14 -27 -14 -11 -52 8 -20 16 -38 17 -39 1 -2 17 12
34 30 l32 33 -22 21 c-21 20 -25 20 -50 7z"/>
<path d="M2079 1398 c-34 -17 -37 -22 -42 -76 -3 -31 -9 -66 -13 -77 -6 -15 3
-11 32 15 66 58 74 73 66 117 l-7 40 -36 -19z"/>
<path d="M1883 1328 c-22 -46 -59 -110 -81 -143 -22 -33 -37 -61 -32 -63 14
-5 178 58 190 73 18 21 -13 215 -34 215 -2 0 -21 -37 -43 -82z m47 -64 c0 -39
-4 -47 -32 -64 -57 -35 -62 -25 -22 50 20 38 40 67 45 64 5 -3 9 -25 9 -50z"/>
<path d="M1071 1391 c-12 -8 -46 -169 -38 -177 1 -2 22 22 46 53 l43 56 -18
38 c-14 29 -23 36 -33 30z"/>
<path d="M865 1330 c2 -36 3 -69 4 -74 1 -5 8 -3 16 4 14 12 14 15 0 30 -17
18 -20 34 -5 25 8 -5 6 7 -13 65 -3 8 -4 -14 -2 -50z"/>
<path d="M1964 1374 c5 -10 11 -49 13 -87 5 -64 18 -93 28 -65 2 7 8 46 13 86
8 65 7 72 -9 72 -10 0 -25 3 -35 7 -14 5 -16 3 -10 -13z"/>
<path d="M1173 1349 l-31 -32 25 -41 c14 -23 27 -43 29 -45 2 -2 23 2 47 9
l44 12 -35 64 c-20 35 -38 64 -42 64 -3 0 -20 -14 -37 -31z m67 -70 c0 -18
-39 -8 -45 11 -11 33 6 46 27 21 10 -13 18 -27 18 -32z"/>
<path d="M1012 1352 c-22 -17 -22 -20 -10 -71 l12 -54 12 69 c6 38 11 70 10
71 -1 1 -12 -6 -24 -15z"/>
<path d="M1590 1335 c-7 -9 -22 -13 -34 -10 -12 3 -16 2 -9 -1 7 -3 10 -11 7
-17 -2 -7 21 -37 52 -67 31 -30 54 -47 50 -37 -3 10 -14 47 -23 83 -18 68 -23
73 -43 49z"/>
<path d="M957 1313 c-4 -3 3 -21 14 -40 12 -19 19 -36 16 -39 -2 -3 -15 11
-27 31 -20 33 -41 39 -39 12 0 -18 59 -61 69 -51 5 5 5 27 -2 52 -10 41 -18
49 -31 35z"/>
<path d="M1500 1310 c-8 -5 -53 -22 -100 -37 -47 -15 -87 -28 -88 -29 -5 -3
18 -74 24 -74 5 0 134 89 173 119 24 19 16 37 -9 21z"/>
<path d="M1083 1248 c-23 -29 -41 -53 -40 -55 2 -1 33 5 70 13 l67 16 -23 39
c-12 21 -24 39 -27 39 -3 0 -24 -23 -47 -52z"/>
<path d="M2071 1249 c-51 -45 -91 -115 -91 -157 0 -17 67 17 97 50 18 18 59
146 50 154 -1 1 -27 -20 -56 -47z"/>
<path d="M1495 1259 c-22 -16 -67 -48 -100 -70 -54 -36 -61 -44 -57 -68 4 -27
6 -28 80 -34 71 -5 178 -1 228 8 16 4 19 10 16 38 -3 26 -19 49 -65 95 l-62
61 -40 -30z m95 -65 c59 -64 46 -75 -87 -76 -97 -1 -123 4 -123 21 0 13 132
101 151 101 9 0 36 -21 59 -46z"/>
<path d="M892 1248 c-7 -7 -12 -17 -12 -24 0 -17 26 -36 44 -32 12 3 12 8 -3
36 -13 25 -19 30 -29 20z"/>
<path d="M1250 1227 c-19 -6 -36 -11 -38 -13 -4 -2 49 -84 54 -84 2 0 15 5 29
12 19 9 24 16 19 32 -11 36 -23 66 -26 65 -2 -1 -19 -6 -38 -12z"/>
<path d="M940 1224 c0 -18 23 -42 35 -38 8 4 15 1 15 -5 0 -6 -4 -11 -10 -11
-5 0 -7 -7 -4 -15 5 -12 9 -13 21 -4 12 11 13 9 8 -12 -4 -15 0 -32 10 -44 15
-19 16 -18 10 15 -10 59 -24 84 -55 102 -17 9 -30 15 -30 12z"/>
<path d="M1117 1195 c-32 -7 -60 -15 -62 -17 -2 -2 39 -19 91 -37 52 -19 97
-31 100 -28 6 6 -57 98 -65 96 -3 -1 -32 -7 -64 -14z"/>
<path d="M925 1132 c31 -57 40 -63 48 -31 6 21 -18 69 -33 69 -5 0 -16 3 -26
7 -14 5 -12 -4 11 -45z"/>
<path d="M1883 1140 c-93 -39 -92 -48 7 -57 52 -5 59 -3 70 16 6 12 10 34 8
49 l-3 27 -82 -35z"/>
<path d="M1091 1124 c47 -49 63 -56 93 -42 30 13 34 28 9 28 -10 0 -45 11 -77
25 l-59 24 34 -35z"/>
<path d="M1680 1125 c0 -26 7 -29 34 -19 23 9 20 19 -9 32 -23 11 -25 10 -25
-13z"/>
<path d="M1042 1092 c9 -51 20 -68 37 -57 8 4 5 19 -11 46 -29 52 -19 59 12 9
22 -36 50 -53 50 -32 0 12 -68 76 -83 78 -11 1 -12 -8 -5 -44z"/>
<path d="M1298 1129 c-24 -13 -23 -29 2 -29 13 0 20 7 20 20 0 23 1 23 -22 9z"/>
<path d="M2021 1084 c-29 -15 -49 -35 -58 -55 -20 -49 -16 -55 18 -23 28 26
96 106 87 103 -1 -1 -23 -12 -47 -25z"/>
<path d="M980 1081 c0 -35 12 -51 36 -51 l24 0 -22 35 c-26 39 -38 44 -38 16z"/>
<path d="M1208 1077 l-37 -20 22 -17 c12 -9 40 -27 61 -40 37 -23 39 -23 52
-5 20 27 17 49 -8 72 -34 30 -49 32 -90 10z"/>
<path d="M1713 1068 c-18 -20 -33 -49 -38 -73 -4 -21 -13 -52 -22 -68 -8 -16
-12 -32 -8 -35 9 -10 166 16 189 32 12 7 41 41 64 75 l43 61 -29 0 c-16 0 -55
9 -88 20 -76 25 -75 25 -111 -12z m108 -19 c19 -7 38 -15 43 -20 15 -13 -32
-66 -74 -83 -43 -17 -100 -21 -100 -7 0 21 25 78 43 99 23 25 39 27 88 11z"/>
<path d="M1340 1058 c0 -17 45 -60 123 -116 l46 -32 78 62 c43 35 79 72 81 83
3 19 -3 20 -163 20 -147 0 -165 -2 -165 -17z m260 -27 c0 -15 -72 -71 -91 -71
-19 0 -99 56 -99 70 0 6 39 10 95 10 52 0 95 -4 95 -9z"/>
<path d="M1131 1041 c-11 -7 -4 -21 34 -65 26 -31 53 -56 60 -56 7 0 23 9 36
20 21 18 22 21 8 30 -9 5 -39 25 -68 45 -29 19 -54 35 -55 35 0 0 -7 -4 -15
-9z"/>
<path d="M1913 992 c-18 -25 -30 -48 -28 -51 8 -7 36 21 51 51 25 49 11 49
-23 0z"/>
<path d="M1076 1023 c-9 -9 84 -103 102 -103 7 0 -8 25 -34 55 -48 56 -55 61
-68 48z"/>
<path d="M1325 1000 c-4 -17 -5 -33 -2 -36 7 -7 167 -64 167 -60 0 3 -17 15
-37 27 -21 13 -57 41 -80 62 l-41 38 -7 -31z"/>
<path d="M1032 1011 c-9 -6 -7 -12 8 -26 25 -22 32 -17 17 12 -8 14 -17 19
-25 14z"/>
<path d="M1635 989 c-11 -12 -42 -36 -69 -55 l-49 -33 36 -6 c57 -11 70 -4 90
49 21 59 19 75 -8 45z"/>
<path d="M1290 942 c0 -13 -68 -42 -85 -36 -27 11 -16 -5 22 -31 48 -32 67
-33 28 0 -40 32 -25 32 26 -2 39 -26 42 -26 92 -13 29 7 63 18 76 25 24 12 24
12 -13 19 -20 4 -57 16 -82 27 -50 21 -64 23 -64 11z"/>
<path d="M1837 900 c-26 -16 -47 -32 -47 -35 0 -9 79 37 92 52 16 19 7 16 -45
-17z"/>
<path d="M1130 915 c0 -6 73 -55 83 -55 12 0 -44 45 -65 53 -10 3 -18 4 -18 2z"/>
<path d="M1440 864 c-30 -13 -64 -24 -75 -24 -33 -1 2 -18 64 -31 44 -9 60 -8
96 6 59 22 75 42 44 53 -52 19 -76 19 -129 -4z"/>
<path d="M1690 876 c-73 -12 -74 -12 -35 -19 65 -11 91 -8 116 13 27 22 27 22
-81 6z"/>
<path d="M1568 823 c-21 -15 -37 -28 -35 -29 5 -5 147 25 164 35 16 9 14 10
-8 11 -15 0 -39 2 -55 4 -20 3 -41 -3 -66 -21z"/>
<path d="M1289 639 c-25 -25 -25 -80 1 -104 17 -16 43 -18 207 -20 l188 -2 26
27 c52 52 3 127 -76 116 -22 -4 -49 -6 -60 -6 -11 0 -31 -1 -45 -1 -14 0 -31
0 -37 1 -12 1 -26 1 -80 0 -10 0 -37 2 -61 4 -33 4 -47 1 -63 -15z m41 -54 c0
-24 -5 -35 -15 -35 -10 0 -15 11 -15 35 0 24 5 35 15 35 10 0 15 -11 15 -35z
m65 15 c3 -11 9 -20 13 -20 4 0 13 9 20 20 20 33 50 26 54 -12 l3 -33 20 33
c24 40 45 41 68 3 9 -16 17 -31 17 -33 0 -1 -32 -4 -70 -5 -66 -1 -70 0 -71
20 l0 22 -11 -22 c-6 -13 -17 -23 -23 -23 -7 0 -20 10 -29 23 l-17 22 6 -22
c5 -17 2 -23 -9 -23 -12 0 -16 10 -16 35 0 28 4 35 19 35 11 0 23 -9 26 -20z
m303 -9 c5 -29 -12 -41 -60 -41 -37 0 -38 1 -38 36 l0 35 48 -3 c41 -3 47 -6
50 -27z"/>
<path d="M1630 585 c0 -8 9 -15 20 -15 11 0 20 7 20 15 0 8 -9 15 -20 15 -11
0 -20 -7 -20 -15z"/>
</g>
</svg>
